<?xml version="1.0" encoding="UTF-8"?>
<svg width="384px" height="512px" viewBox="0 0 384 512" version="1.1" xmlns="http://www.w3.org/2000/svg" xmlns:xlink="http://www.w3.org/1999/xlink">
    <!-- Generator: Sketch 42 (36781) - http://www.bohemiancoding.com/sketch -->
    <title>Group</title>
    <desc>Created with Sketch.</desc>
    <defs>
        <rect id="path-1" x="75" y="170" width="213" height="30"></rect>
        <mask id="mask-2" maskContentUnits="userSpaceOnUse" maskUnits="objectBoundingBox" x="0" y="0" width="213" height="30" fill="white">
            <use xlink:href="#path-1"></use>
        </mask>
        <rect id="path-3" x="75" y="282" width="200" height="30"></rect>
        <mask id="mask-4" maskContentUnits="userSpaceOnUse" maskUnits="objectBoundingBox" x="0" y="0" width="200" height="30" fill="white">
            <use xlink:href="#path-3"></use>
        </mask>
        <rect id="path-5" x="75" y="338" width="128" height="30"></rect>
        <mask id="mask-6" maskContentUnits="userSpaceOnUse" maskUnits="objectBoundingBox" x="0" y="0" width="128" height="30" fill="white">
            <use xlink:href="#path-5"></use>
        </mask>
        <rect id="path-7" x="75" y="226" width="167" height="30"></rect>
        <mask id="mask-8" maskContentUnits="userSpaceOnUse" maskUnits="objectBoundingBox" x="0" y="0" width="167" height="30" fill="white">
            <use xlink:href="#path-7"></use>
        </mask>
    </defs>
    <g id="Page-1" stroke="none" stroke-width="1" fill="none" fill-rule="evenodd">
        <g id="Group" fill="#000000">
            <path d="M368,64 L336,64 L336,96 L352,96 L352,352 L224,352 L224,480 L32,480 L32,96 L48,96 L48,64 L16,64 C7.199,64 0,71.2 0,80 L0,496 C0,504.8 7.199,512 16,512 L268,512 L384,396 L384,80 C384,71.2 376.8,64 368,64 Z M256,480 L256,384 L352,384 L256,480 Z M320,64 L256,64 L256,32 C256,14.4 241.6,0 224,0 L160,0 C142.398,0 128,14.4 128,32 L128,64 L64,64 L64,128 L320,128 L320,64 Z M224,64 L160,64 L160,32.057 C160.017,32.038 160.036,32.018 160.057,32 L223.941,32 C223.962,32.018 223.982,32.038 224,32.057 L224,64 Z" id="Shape" fill-rule="nonzero"></path>
            <use id="Rectangle" stroke="#000000" mask="url(#mask-2)" stroke-width="2" xlink:href="#path-1"></use>
            <use id="Rectangle" stroke="#000000" mask="url(#mask-4)" stroke-width="2" xlink:href="#path-3"></use>
            <use id="Rectangle" stroke="#000000" mask="url(#mask-6)" stroke-width="2" xlink:href="#path-5"></use>
            <use id="Rectangle" stroke="#000000" mask="url(#mask-8)" stroke-width="2" xlink:href="#path-7"></use>
        </g>
    </g>
</svg>